# xmcd CD database file
#
# Track frame offsets:
#	150
#	15880
#	31225
#	45595
#	61292
#	80757
#	94627
#	109322
#	124490
#	138622
#	154812
#	171377
#	188935
#	206292
#	223652
#	241452
#
# Disc length: 3459 seconds
#
# Revision: 0
# Processed by: cddbd v1.5.1PL0 Copyright (c) Steve Scherf et al.
# Submitted via: CDex 1.50beta10
#
DISCID=e10d8110
DTITLE=Reba McEntire - Hit Disc For Radio Only
DYEAR=1999
DGENRE=Country
TTITLE0=What Do You Say
TTITLE1=Whoever's In New England
TTITLE2=Is There Life Out There
TTITLE3=And Still
TTITLE4=Does He Love You
TTITLE5=The Fear Of Being Alone
TTITLE6=The Greatest Man I Never Knew
TTITLE7=The Heart Won't Lie
TTITLE8=Little rock
TTITLE9=For My Broken Heart
TTITLE10=How Was I To Know
TTITLE11=Forever Love
TTITLE12=Till You Love Me
TTITLE13=The Heart Is A Lonely Hunter
TTITLE14=If You See Him (If You See Her)
TTITLE15=You Lie
EXTD=YEAR: 1999
EXTT0=
EXTT1=
EXTT2=
EXTT3=
EXTT4=
EXTT5=
EXTT6=
EXTT7=
EXTT8=
EXTT9=
EXTT10=
EXTT11=
EXTT12=
EXTT13=
EXTT14=
EXTT15=
PLAYORDER=
